<mxfile host="Electron" modified="2023-04-25T00:56:39.097Z" agent="Mozilla/5.0 (Windows NT 10.0; Win64; x64) AppleWebKit/537.36 (KHTML, like Gecko) draw.io/21.1.2 Chrome/106.0.5249.199 Electron/21.4.3 Safari/537.36" etag="v88lfnPkvp7WqubF8yIB" version="21.1.2" type="device">
  <diagram name="Página-1" id="51Utgtg3inXn5Kg-I-RO">
    <mxGraphModel dx="1114" dy="664" grid="1" gridSize="10" guides="1" tooltips="1" connect="1" arrows="1" fold="1" page="1" pageScale="1" pageWidth="827" pageHeight="1169" math="0" shadow="0">
      <root>
        <mxCell id="0" />
        <mxCell id="1" parent="0" />
        <mxCell id="Ixzr4LLj_cnwP-CNiU-C-8" style="edgeStyle=orthogonalEdgeStyle;rounded=0;orthogonalLoop=1;jettySize=auto;html=1;" edge="1" parent="1" source="Ixzr4LLj_cnwP-CNiU-C-6" target="Ixzr4LLj_cnwP-CNiU-C-9">
          <mxGeometry relative="1" as="geometry">
            <mxPoint x="70" y="200" as="targetPoint" />
          </mxGeometry>
        </mxCell>
        <mxCell id="Ixzr4LLj_cnwP-CNiU-C-6" value="" style="shape=waypoint;sketch=0;fillStyle=solid;size=6;pointerEvents=1;points=[];fillColor=none;resizable=0;rotatable=0;perimeter=centerPerimeter;snapToPoint=1;" vertex="1" parent="1">
          <mxGeometry x="60" y="130" width="20" height="20" as="geometry" />
        </mxCell>
        <mxCell id="Ixzr4LLj_cnwP-CNiU-C-13" style="edgeStyle=orthogonalEdgeStyle;rounded=0;orthogonalLoop=1;jettySize=auto;html=1;" edge="1" parent="1" source="Ixzr4LLj_cnwP-CNiU-C-9">
          <mxGeometry relative="1" as="geometry">
            <mxPoint x="70" y="290" as="targetPoint" />
          </mxGeometry>
        </mxCell>
        <mxCell id="Ixzr4LLj_cnwP-CNiU-C-9" value="login/cadastro&lt;br&gt;na plataforma" style="rounded=0;whiteSpace=wrap;html=1;" vertex="1" parent="1">
          <mxGeometry x="10" y="170" width="120" height="60" as="geometry" />
        </mxCell>
        <mxCell id="Ixzr4LLj_cnwP-CNiU-C-11" value="[Tem email?]" style="text;html=1;align=center;verticalAlign=middle;resizable=0;points=[];autosize=1;strokeColor=none;fillColor=none;" vertex="1" parent="1">
          <mxGeometry x="70" y="240" width="90" height="30" as="geometry" />
        </mxCell>
        <mxCell id="Ixzr4LLj_cnwP-CNiU-C-15" value="" style="endArrow=none;html=1;rounded=0;" edge="1" parent="1">
          <mxGeometry width="50" height="50" relative="1" as="geometry">
            <mxPoint x="35" y="290" as="sourcePoint" />
            <mxPoint x="105" y="290" as="targetPoint" />
          </mxGeometry>
        </mxCell>
        <mxCell id="Ixzr4LLj_cnwP-CNiU-C-16" value="" style="endArrow=classic;html=1;rounded=0;entryX=0.017;entryY=0.633;entryDx=0;entryDy=0;entryPerimeter=0;" edge="1" parent="1" target="Ixzr4LLj_cnwP-CNiU-C-18">
          <mxGeometry width="50" height="50" relative="1" as="geometry">
            <mxPoint x="100" y="290" as="sourcePoint" />
            <mxPoint x="200" y="330" as="targetPoint" />
            <Array as="points">
              <mxPoint x="100" y="328" />
            </Array>
          </mxGeometry>
        </mxCell>
        <mxCell id="Ixzr4LLj_cnwP-CNiU-C-17" value="" style="endArrow=classic;html=1;rounded=0;entryX=0.5;entryY=1;entryDx=0;entryDy=0;" edge="1" parent="1" target="Ixzr4LLj_cnwP-CNiU-C-18">
          <mxGeometry width="50" height="50" relative="1" as="geometry">
            <mxPoint x="40" y="290" as="sourcePoint" />
            <mxPoint x="270" y="360" as="targetPoint" />
            <Array as="points">
              <mxPoint x="40" y="400" />
              <mxPoint x="240" y="400" />
            </Array>
          </mxGeometry>
        </mxCell>
        <mxCell id="Ixzr4LLj_cnwP-CNiU-C-20" style="edgeStyle=orthogonalEdgeStyle;rounded=0;orthogonalLoop=1;jettySize=auto;html=1;" edge="1" parent="1" source="Ixzr4LLj_cnwP-CNiU-C-18">
          <mxGeometry relative="1" as="geometry">
            <mxPoint x="330" y="320" as="targetPoint" />
          </mxGeometry>
        </mxCell>
        <mxCell id="Ixzr4LLj_cnwP-CNiU-C-18" value="Acesso a plataforma" style="rounded=0;whiteSpace=wrap;html=1;" vertex="1" parent="1">
          <mxGeometry x="180" y="290" width="120" height="60" as="geometry" />
        </mxCell>
        <mxCell id="Ixzr4LLj_cnwP-CNiU-C-21" value="" style="endArrow=none;html=1;rounded=0;" edge="1" parent="1">
          <mxGeometry width="50" height="50" relative="1" as="geometry">
            <mxPoint x="330" y="380" as="sourcePoint" />
            <mxPoint x="330" y="260" as="targetPoint" />
          </mxGeometry>
        </mxCell>
        <mxCell id="Ixzr4LLj_cnwP-CNiU-C-22" value="" style="endArrow=classic;html=1;rounded=0;" edge="1" parent="1">
          <mxGeometry width="50" height="50" relative="1" as="geometry">
            <mxPoint x="330" y="270" as="sourcePoint" />
            <mxPoint x="390" y="270" as="targetPoint" />
          </mxGeometry>
        </mxCell>
        <mxCell id="Ixzr4LLj_cnwP-CNiU-C-24" value="" style="endArrow=classic;html=1;rounded=0;" edge="1" parent="1">
          <mxGeometry width="50" height="50" relative="1" as="geometry">
            <mxPoint x="330" y="319.5" as="sourcePoint" />
            <mxPoint x="390" y="320" as="targetPoint" />
          </mxGeometry>
        </mxCell>
        <mxCell id="Ixzr4LLj_cnwP-CNiU-C-25" value="" style="endArrow=classic;html=1;rounded=0;" edge="1" parent="1">
          <mxGeometry width="50" height="50" relative="1" as="geometry">
            <mxPoint x="330" y="370" as="sourcePoint" />
            <mxPoint x="390" y="370" as="targetPoint" />
          </mxGeometry>
        </mxCell>
        <mxCell id="Ixzr4LLj_cnwP-CNiU-C-46" style="edgeStyle=orthogonalEdgeStyle;rounded=0;orthogonalLoop=1;jettySize=auto;html=1;entryX=0;entryY=0.5;entryDx=0;entryDy=0;" edge="1" parent="1" source="Ixzr4LLj_cnwP-CNiU-C-26" target="Ixzr4LLj_cnwP-CNiU-C-32">
          <mxGeometry relative="1" as="geometry">
            <mxPoint x="480" y="180" as="targetPoint" />
            <Array as="points">
              <mxPoint x="450" y="190" />
            </Array>
          </mxGeometry>
        </mxCell>
        <mxCell id="Ixzr4LLj_cnwP-CNiU-C-26" value="Carreira profissional" style="rounded=0;whiteSpace=wrap;html=1;" vertex="1" parent="1">
          <mxGeometry x="390" y="250" width="120" height="40" as="geometry" />
        </mxCell>
        <mxCell id="Ixzr4LLj_cnwP-CNiU-C-33" style="edgeStyle=orthogonalEdgeStyle;rounded=0;orthogonalLoop=1;jettySize=auto;html=1;" edge="1" parent="1" source="Ixzr4LLj_cnwP-CNiU-C-29">
          <mxGeometry relative="1" as="geometry">
            <mxPoint x="540" y="320" as="targetPoint" />
          </mxGeometry>
        </mxCell>
        <mxCell id="Ixzr4LLj_cnwP-CNiU-C-50" style="edgeStyle=orthogonalEdgeStyle;rounded=0;orthogonalLoop=1;jettySize=auto;html=1;entryX=0;entryY=0.75;entryDx=0;entryDy=0;" edge="1" parent="1" source="Ixzr4LLj_cnwP-CNiU-C-29" target="Ixzr4LLj_cnwP-CNiU-C-47">
          <mxGeometry relative="1" as="geometry" />
        </mxCell>
        <mxCell id="Ixzr4LLj_cnwP-CNiU-C-29" value="Cadastro pessoal" style="rounded=0;whiteSpace=wrap;html=1;" vertex="1" parent="1">
          <mxGeometry x="390" y="300" width="120" height="40" as="geometry" />
        </mxCell>
        <mxCell id="Ixzr4LLj_cnwP-CNiU-C-30" value="informações acadêmicas" style="rounded=0;whiteSpace=wrap;html=1;" vertex="1" parent="1">
          <mxGeometry x="390" y="350" width="120" height="40" as="geometry" />
        </mxCell>
        <mxCell id="Ixzr4LLj_cnwP-CNiU-C-32" value="Trabalho voluntário" style="rounded=0;whiteSpace=wrap;html=1;" vertex="1" parent="1">
          <mxGeometry x="540" y="170" width="120" height="40" as="geometry" />
        </mxCell>
        <mxCell id="Ixzr4LLj_cnwP-CNiU-C-34" value="certificações" style="rounded=0;whiteSpace=wrap;html=1;" vertex="1" parent="1">
          <mxGeometry x="540" y="420" width="120" height="40" as="geometry" />
        </mxCell>
        <mxCell id="Ixzr4LLj_cnwP-CNiU-C-38" value="redes sociais" style="rounded=0;whiteSpace=wrap;html=1;" vertex="1" parent="1">
          <mxGeometry x="540" y="300" width="120" height="40" as="geometry" />
        </mxCell>
        <mxCell id="Ixzr4LLj_cnwP-CNiU-C-40" value="Se sim" style="text;html=1;align=center;verticalAlign=middle;resizable=0;points=[];autosize=1;strokeColor=none;fillColor=none;" vertex="1" parent="1">
          <mxGeometry x="110" y="305" width="60" height="30" as="geometry" />
        </mxCell>
        <mxCell id="Ixzr4LLj_cnwP-CNiU-C-41" value="Se não" style="text;html=1;align=center;verticalAlign=middle;resizable=0;points=[];autosize=1;strokeColor=none;fillColor=none;" vertex="1" parent="1">
          <mxGeometry x="110" y="375" width="60" height="30" as="geometry" />
        </mxCell>
        <mxCell id="Ixzr4LLj_cnwP-CNiU-C-42" value="" style="endArrow=none;html=1;rounded=0;" edge="1" parent="1">
          <mxGeometry width="50" height="50" relative="1" as="geometry">
            <mxPoint x="680" y="475" as="sourcePoint" />
            <mxPoint x="680" y="165" as="targetPoint" />
          </mxGeometry>
        </mxCell>
        <mxCell id="Ixzr4LLj_cnwP-CNiU-C-44" value="Publica currículo" style="rounded=0;whiteSpace=wrap;html=1;" vertex="1" parent="1">
          <mxGeometry x="700" y="290" width="120" height="60" as="geometry" />
        </mxCell>
        <mxCell id="Ixzr4LLj_cnwP-CNiU-C-45" value="" style="endArrow=none;html=1;rounded=0;" edge="1" parent="1" target="Ixzr4LLj_cnwP-CNiU-C-44">
          <mxGeometry width="50" height="50" relative="1" as="geometry">
            <mxPoint x="680" y="319.5" as="sourcePoint" />
            <mxPoint x="700" y="320" as="targetPoint" />
          </mxGeometry>
        </mxCell>
        <mxCell id="Ixzr4LLj_cnwP-CNiU-C-47" value="informações pessoais" style="rounded=0;whiteSpace=wrap;html=1;" vertex="1" parent="1">
          <mxGeometry x="540" y="250" width="120" height="40" as="geometry" />
        </mxCell>
        <mxCell id="Ixzr4LLj_cnwP-CNiU-C-49" value="" style="endArrow=classic;html=1;rounded=0;entryX=0;entryY=0.5;entryDx=0;entryDy=0;" edge="1" parent="1" target="Ixzr4LLj_cnwP-CNiU-C-34">
          <mxGeometry width="50" height="50" relative="1" as="geometry">
            <mxPoint x="452" y="390" as="sourcePoint" />
            <mxPoint x="452" y="490" as="targetPoint" />
            <Array as="points">
              <mxPoint x="452" y="440" />
            </Array>
          </mxGeometry>
        </mxCell>
        <mxCell id="Ixzr4LLj_cnwP-CNiU-C-51" value="descrição" style="rounded=0;whiteSpace=wrap;html=1;" vertex="1" parent="1">
          <mxGeometry x="540" y="350" width="120" height="40" as="geometry" />
        </mxCell>
        <mxCell id="Ixzr4LLj_cnwP-CNiU-C-55" value="" style="endArrow=classic;html=1;rounded=0;entryX=0;entryY=0.5;entryDx=0;entryDy=0;" edge="1" parent="1" target="Ixzr4LLj_cnwP-CNiU-C-51">
          <mxGeometry width="50" height="50" relative="1" as="geometry">
            <mxPoint x="510" y="299.5" as="sourcePoint" />
            <mxPoint x="530" y="350" as="targetPoint" />
            <Array as="points">
              <mxPoint x="530" y="300" />
              <mxPoint x="530" y="370" />
            </Array>
          </mxGeometry>
        </mxCell>
      </root>
    </mxGraphModel>
  </diagram>
</mxfile>
